#!OML:ASF F:\VICON\USERDATA\INSTALL\Justin_Nancy\Justin_Nancy.ASF
:FULLY-SPECIFIED
:DEGREES
63
root 1.00933 17.2234 -17.2602 0.67797 2.31864 5.11683
lowerback 5.03168 -2.19822 -6.95341
upperback 0.129256 -3.28635 1.72459
thorax -2.19642 -1.56208 5.91482
lowerneck -17.0007 -2.32582 -9.2544
upperneck 21.6252 -1.70413 4.16882
head 9.79628 -1.07945 2.7756
rclavicle -1.46604e-014 1.59028e-014
rhumerus -37.6646 -15.6435 -75.8746
rradius 27.2978
rwrist 10.9995
rhand -12.1103 14.8185
rfingers 7.12502
rthumb 13.9508 -14.6934
lclavicle -1.46604e-014 1.59028e-014
lhumerus -21.0906 7.11669 82.8332
lradius 28.2783
lwrist -9.27967
lhand -14.8378 28.0927
lfingers 7.12502
lthumb 11.3212 57.7672
rfemur -27.6145 2.80467 13.0635
rtibia 13.0402
rfoot -5.22017 -7.43866
rtoes -8.31985
lfemur 7.19522 -0.618819 -29.7919
ltibia 20.3214
lfoot -18.16 -0.942255
ltoes -2.54266
64
root 0.988965 17.2105 -17.1055 0.611281 2.32523 5.01041
lowerback 5.1404 -2.16889 -6.84956
upperback 0.170459 -3.2479 1.71293
thorax -2.22671 -1.54386 5.84624
lowerneck -16.9595 -2.33332 -9.24722
upperneck 21.5185 -1.75492 4.31329
head 9.75477 -1.08401 2.81723
rclavicle 5.50634e-014 7.15625e-015
rhumerus -37.7365 -15.9412 -75.7674
rradius 27.2107
rwrist 11.2608
rhand -11.9413 15.5742
rfingers 7.12502
rthumb 14.1135 -13.9265
lclavicle 5.50634e-014 7.15625e-015
lhumerus -20.8546 6.78002 82.878
lradius 28.4278
lwrist -8.81245
lhand -15.72 27.5864
lfingers 7.12502
lthumb 10.4703 57.3056
rfemur -27.7085 2.58619 13.4353
rtibia 13.8822
rfoot -4.9671 -6.7528
rtoes -7.36516
lfemur 7.80209 -0.844367 -29.6209
ltibia 20.486
lfoot -18.1098 -0.860657
ltoes -5.06909
65
root 0.971445 17.1962 -16.9547 0.539105 2.30151 4.89758
lowerback 5.27827 -2.16523 -6.76601
upperback 0.204557 -3.24549 1.758
thorax -2.27082 -1.54254 5.8524
lowerneck -17.0178 -2.34712 -9.2553
upperneck 21.5629 -1.7662 4.31139
head 9.78245 -1.09047 2.81705
rclavicle -8.39865e-015 -7.95139e-016
rhumerus -37.7498 -16.1044 -75.7061
rradius 27.192
rwrist 11.5391
rhand -11.721 15.2765
rfingers 7.12502
rthumb 14.3258 -14.2092
lclavicle -8.39865e-015 -7.95139e-016
lhumerus -20.8214 6.86279 82.8276
lradius 28.7064
lwrist -9.01876
lhand -16.8035 26.561
lfingers 7.12502
lthumb 9.42492 56.3303
rfemur -27.8306 2.2553 13.8545
rtibia 14.917
rfoot -4.64629 -5.817
rtoes -7.35212
lfemur 8.27049 -1.07124 -29.4504
ltibia 20.7939
lfoot -17.9196 -0.803142
ltoes -7.38886
66
root 0.956167 17.1963 -16.7946 0.453498 2.16891 5.01754
lowerback 5.38756 -2.14621 -6.90596
upperback 0.142629 -3.23805 1.75123
thorax -2.39059 -1.53054 5.9321
lowerneck -16.8766 -2.33984 -9.21368
upperneck 21.6223 -1.75284 4.18741
head 9.77519 -1.09765 2.76891
rclavicle 3.02153e-014 5.56597e-015
rhumerus -37.9918 -15.9149 -75.6432
rradius 27.0773
rwrist 11.4973
rhand -11.7924 15.1563
rfingers 7.12502
rthumb 14.257 -14.3343
lclavicle 3.02153e-014 5.56597e-015
lhumerus -21.0799 7.41389 82.7357
lradius 28.8867
lwrist -9.72116
lhand -16.6277 26.2975
lfingers 7.12502
lthumb 9.59453 56.059
rfemur -27.8921 2.14943 13.9488
rtibia 16.1322
rfoot -4.35216 -5.06444
rtoes -7.27287
lfemur 8.6956 -1.41165 -29.5936
ltibia 21.198
lfoot -17.6454 -0.84754
ltoes -7.54522
67
root 0.936794 17.1943 -16.6295 0.335147 1.84255 4.9255
lowerback 5.36756 -2.05317 -6.78688
upperback 0.244712 -3.10331 1.72171
thorax -2.30134 -1.47126 5.82164
lowerneck -16.9684 -2.38354 -9.12148
upperneck 21.5721 -1.82704 4.17661
head 9.77874 -1.12387 2.73891
rclavicle -2.06736e-014 2.38542e-015
rhumerus -37.9179 -16.1889 -75.5583
rradius 26.6975
rwrist 11.7075
rhand -11.774 14.9201
rfingers 7.12502
rthumb 14.2747 -14.5692
lclavicle -2.06736e-014 2.38542e-015
lhumerus -21.0306 7.38873 82.6745
lradius 29.0273
lwrist -9.88344
lhand -16.3947 26.6505
lfingers 7.12502
lthumb 9.81933 56.4015
rfemur -27.9093 2.11253 14.3823
rtibia 17.4091
rfoot -4.17624 -4.21935
rtoes -7.57947
lfemur 9.1227 -1.59525 -29.5154
ltibia 21.6376
lfoot -17.4125 -0.814086
ltoes -7.94483
68
root 0.917193 17.1851 -16.4616 0.244098 1.73333 4.99884
lowerback 5.44116 -2.02007 -6.90373
upperback 0.227767 -3.07239 1.70402
thorax -2.35988 -1.4517 5.87185
lowerneck -16.7978 -2.35434 -9.13796
upperneck 21.4758 -1.81175 4.23368
head 9.71195 -1.11137 2.76267
rclavicle -5.93372e-014 -2.38542e-015
rhumerus -38.0549 -16.439 -75.3243
rradius 26.2527
rwrist 12.0887
rhand -12.1579 15.5559
rfingers 7.12502
rthumb 13.9048 -13.9592
lclavicle -5.93372e-014 -2.38542e-015
lhumerus -21.0833 7.44093 82.6751
lradius 29.1381
lwrist -9.76209
lhand -15.7042 28.4123
lfingers 7.12502
lthumb 10.4855 58.1308
rfemur -27.932 1.87571 14.6365
rtibia 18.7619
rfoot -4.2983 -3.30694
rtoes -6.36764
lfemur 9.59034 -1.73949 -29.538
ltibia 21.9422
lfoot -16.9294 -1.04238
ltoes -8.89516
69
root 0.892185 17.1865 -16.2808 0.104417 2.22127 5.0766
lowerback 5.54361 -2.17448 -7.05838
upperback 0.23652 -3.29522 1.69418
thorax -2.36654 -1.56135 5.96688
lowerneck -16.8818 -2.27198 -9.07927
upperneck 21.6115 -1.70621 4.23327
head 9.76669 -1.05947 2.76895
rclavicle -6.32632e-014 1.90833e-014
rhumerus -38.3505 -16.208 -75.4198
rradius 26.3323
rwrist 11.8324
rhand -12.531 15.7554
rfingers 7.12502
rthumb 13.5453 -13.784
lclavicle -6.32632e-014 1.90833e-014
lhumerus -21.1278 7.4283 82.7151
lradius 29.1877
lwrist -9.348
lhand -15.0614 30.7425
lfingers 7.12502
lthumb 11.1055 60.4286
rfemur -27.6781 1.79454 14.6624
rtibia 19.9945
rfoot -4.1029 -2.85865
rtoes -6.03
lfemur 10.1931 -2.26411 -29.4689
ltibia 22.1902
lfoot -16.3131 -1.51395
ltoes -10.3103
70
root 0.866822 17.2054 -16.092 -0.119985 2.82074 4.99167
lowerback 5.50644 -2.35274 -6.97417
upperback 0.448219 -3.51907 1.69007
thorax -2.09585 -1.69179 5.91761
lowerneck -17.4317 -2.37144 -9.11448
upperneck 21.8692 -1.79394 4.27603
head 9.96884 -1.0979 2.78185
rclavicle 3.54831e-014 1.19271e-014
rhumerus -38.2585 -16.5938 -75.3252
rradius 26.2764
rwrist 12.4447
rhand -12.4488 15.3997
rfingers 7.12502
rthumb 13.6245 -14.1344
lclavicle 3.54831e-014 1.19271e-014
lhumerus -20.9918 7.31239 82.8125
lradius 29.2444
lwrist -8.77349
lhand -15.2506 30.2357
lfingers 7.12502
lthumb 10.923 59.9315
rfemur -27.1985 1.83073 14.7667
rtibia 20.9573
rfoot -3.52516 -2.70597
rtoes -6.09189
lfemur 10.8888 -2.94434 -29.2206
ltibia 22.5148
lfoot -15.7238 -2.064
ltoes -11.5909
71
root 0.845093 17.2252 -15.9134 -0.252662 2.94573 4.83334
lowerback 5.52444 -2.43215 -6.85425
upperback 0.409898 -3.61823 1.75999
thorax -2.13352 -1.73963 5.93095
lowerneck -17.1514 -2.3462 -9.32163
upperneck 21.8438 -1.76092 4.4064
head 9.90815 -1.08711 2.86705
rclavicle 1.11319e-014 5.56597e-015
rhumerus -38.4277 -17.038 -74.8617
rradius 25.7939
rwrist 13.3628
rhand -11.9927 14.7132
rfingers 7.12502
rthumb 14.0641 -14.7909
lclavicle 1.11319e-014 5.56597e-015
lhumerus -21.3938 7.26941 82.8942
lradius 29.4614
lwrist -8.25261
lhand -15.4843 28.8088
lfingers 7.12502
lthumb 10.6977 58.5164
rfemur -26.96 2.11177 14.9632
rtibia 21.6844
rfoot -2.84202 -2.59694
rtoes -7.04641
lfemur 11.2847 -3.47076 -29.0204
ltibia 22.9861
lfoot -14.8801 -2.37812
ltoes -12.3766
72
root 0.822194 17.2412 -15.7443 -0.293643 2.93122 4.56002
lowerback 5.65793 -2.49883 -6.68214
upperback 0.22291 -3.7062 1.91685
thorax -2.3901 -1.76884 6.01835
lowerneck -16.6103 -2.17872 -9.33709
upperneck 21.7154 -1.54587 4.28098
head 9.74425 -1.00581 2.85183
rclavicle 1.32689e-014 -1.27222e-014
rhumerus -38.796 -17.166 -74.4117
rradius 25.4121
rwrist 14.101
rhand -11.1361 12.3032
rfingers 7.12502
rthumb 14.8894 -17.1417
lclavicle 1.32689e-014 -1.27222e-014
lhumerus -21.9274 7.60351 82.8816
lradius 29.5217
lwrist -8.26194
lhand -15.9072 28.2343
lfingers 7.12502
lthumb 10.2896 57.9626
rfemur -26.7903 2.58627 15.2428
rtibia 22.1131
rfoot -2.11013 -2.88599
rtoes -8.39576
lfemur 11.3872 -3.79508 -28.6688
ltibia 23.77
lfoot -13.8934 -2.71327
ltoes -13.8425
73
root 0.803361 17.2559 -15.5725 -0.402069 3.15003 4.40246
lowerback 5.76035 -2.59887 -6.53128
upperback 0.152688 -3.8361 1.99166
thorax -2.50556 -1.82841 6.02817
lowerneck -16.5259 -2.17952 -9.24125
upperneck 21.9294 -1.52171 4.02402
head 9.8011 -1.02137 2.75131
rclavicle -3.11595e-014 1.43125e-014
rhumerus -38.8178 -17.5654 -74.0416
rradius 24.8568
rwrist 14.6883
rhand -10.8447 10.097
rfingers 7.12502
rthumb 15.1701 -19.3269
lclavicle -3.11595e-014 1.43125e-014
lhumerus -22.2148 8.34862 82.7854
lradius 29.3797
lwrist -9.41842
lhand -15.1494 29.4721
lfingers 7.12502
lthumb 11.0207 59.1628
rfemur -26.3197 2.48098 15.4746
rtibia 22.3067
rfoot -1.44716 -2.65919
rtoes -9.24723
lfemur 11.4309 -4.18471 -28.416
ltibia 24.8741
lfoot -12.9773 -3.23473
ltoes -16.676
74
root 0.787482 17.2764 -15.3973 -0.454211 3.14037 3.90569
lowerback 5.68628 -2.64726 -5.95178
upperback 0.153895 -3.85478 2.10932
thorax -2.48936 -1.84481 5.82039
lowerneck -16.6956 -2.22046 -9.20939
upperneck 22.2216 -1.53247 3.85901
head 9.9375 -1.04763 2.69032
rclavicle -3.69243e-014 1.27222e-014
rhumerus -38.7594 -17.9536 -73.8019
rradius 24.339
rwrist 15.175
rhand -11.2128 10.2519
rfingers 7.12502
rthumb 14.8155 -19.1985
lclavicle -3.69243e-014 1.27222e-014
lhumerus -22.3455 8.63523 82.8437
lradius 28.9882
lwrist -8.78579
lhand -15.7998 28.6349
lfingers 7.12502
lthumb 10.3933 58.358
rfemur -25.882 2.49896 16.1333
rtibia 22.4494
rfoot -0.779082 -1.92903
rtoes -8.87345
lfemur 11.22 -4.54813 -27.878
ltibia 26.2449
lfoot -11.9314 -3.5947
ltoes -18.5962
